<?xml version="1.0" encoding="utf-8" standalone="no"?>
<!DOCTYPE svg PUBLIC "-//W3C//DTD SVG 1.1//EN"
  "http://www.w3.org/Graphics/SVG/1.1/DTD/svg11.dtd">
<svg xmlns:xlink="http://www.w3.org/1999/xlink" width="633.6pt" height="273.6pt" viewBox="0 0 633.6 273.6" xmlns="http://www.w3.org/2000/svg" version="1.1">
 <metadata>
  <rdf:RDF xmlns:dc="http://purl.org/dc/elements/1.1/" xmlns:cc="http://creativecommons.org/ns#" xmlns:rdf="http://www.w3.org/1999/02/22-rdf-syntax-ns#">
   <cc:Work>
    <dc:type rdf:resource="http://purl.org/dc/dcmitype/StillImage"/>
    <dc:date>2026-09-04T01:34:10.832062</dc:date>
    <dc:format>image/svg+xml</dc:format>
    <dc:creator>
     <cc:Agent>
      <dc:title>Matplotlib v3.10.9, https://matplotlib.org/</dc:title>
     </cc:Agent>
    </dc:creator>
   </cc:Work>
  </rdf:RDF>
 </metadata>
 <defs>
  <style type="text/css">*{stroke-linejoin: round; stroke-linecap: butt}</style>
 </defs>
 <g id="figure_1">
  <g id="patch_1">
   <path d="M 0 273.6 
L 633.6 273.6 
L 633.6 0 
L 0 0 
z
" style="fill: #ffffff"/>
  </g>
  <g id="axes_1">
   <g id="patch_2">
    <path d="M 47.961178 240.24351 
L 310.45075 240.24351 
L 310.45075 3.00024 
L 47.961178 3.00024 
z
" style="fill: #ffffff"/>
   </g>
   <g id="patch_3">
    <path d="M 47.961178 107.346249 
L 310.45075 107.346249 
L 310.45075 104.979653 
L 47.961178 104.979653 
z
" clip-path="url(#p8117dbc594)" style="fill: #e6e6e6; stroke: #e6e6e6; stroke-linejoin: miter"/>
   </g>
   <g id="PathCollection_1">
    <defs>
     <path id="macc5bbd74d" d="M 0 4.031129 
C 1.069068 4.031129 2.094493 3.606384 2.850439 2.850439 
C 3.606384 2.094493 4.031129 1.069068 4.031129 0 
C 4.031129 -1.069068 3.606384 -2.094493 2.850439 -2.850439 
C 2.094493 -3.606384 1.069068 -4.031129 0 -4.031129 
C -1.069068 -4.031129 -2.094493 -3.606384 -2.850439 -2.850439 
C -3.606384 -2.094493 -4.031129 -1.069068 -4.031129 0 
C -4.031129 1.069068 -3.606384 2.094493 -2.850439 2.850439 
C -2.094493 3.606384 -1.069068 4.031129 0 4.031129 
z
" style="stroke: #0072b2"/>
    </defs>
    <g clip-path="url(#p8117dbc594)">
     <use xlink:href="#macc5bbd74d" x="69.835309" y="40.710992" style="fill: #0072b2; stroke: #0072b2"/>
     <use xlink:href="#macc5bbd74d" x="288.576619" y="173.972877" style="fill: #0072b2; stroke: #0072b2"/>
    </g>
   </g>
   <g id="PathCollection_2">
    <defs>
     <path id="m313cdd5f2a" d="M -4.031129 4.031129 
L 4.031129 4.031129 
L 4.031129 -4.031129 
L -4.031129 -4.031129 
z
" style="stroke: #d55e00"/>
    </defs>
    <g clip-path="url(#p8117dbc594)">
     <use xlink:href="#m313cdd5f2a" x="69.835309" y="87.024844" style="fill: #d55e00; stroke: #d55e00"/>
     <use xlink:href="#m313cdd5f2a" x="288.576619" y="127.818313" style="fill: #d55e00; stroke: #d55e00"/>
    </g>
   </g>
   <g id="PathCollection_3">
    <path d="M 69.835309 225.428596 
L 65.80418 233.490854 
L 73.866437 233.490854 
L 69.835309 225.428596 
z
" clip-path="url(#p8117dbc594)" style="fill: none; stroke: #009e73"/>
    <path d="M 288.576619 9.752896 
L 284.54549 17.815154 
L 292.607748 17.815154 
L 288.576619 9.752896 
z
" clip-path="url(#p8117dbc594)" style="fill: none; stroke: #009e73"/>
   </g>
   <g id="matplotlib.axis_1">
    <g id="xtick_1">
     <g id="line2d_1">
      <path d="M 69.835309 240.24351 
L 69.835309 3.00024 
" clip-path="url(#p8117dbc594)" style="fill: none; stroke: #b0b0b0; stroke-opacity: 0.18; stroke-width: 0.8; stroke-linecap: square"/>
     </g>
     <g id="line2d_2">
      <defs>
       <path id="med93c653e5" d="M 0 0 
L 0 3.5 
" style="stroke: #000000; stroke-width: 0.8"/>
      </defs>
      <g>
       <use xlink:href="#med93c653e5" x="69.835309" y="240.24351" style="stroke: #000000; stroke-width: 0.8"/>
      </g>
     </g>
     <g id="text_1">
      <!-- −10 -->
      <g transform="translate(59.282965 254.841947) scale(0.1 -0.1)">
       <defs>
        <path id="DejaVuSans-2212" d="M 678 2272 
L 4684 2272 
L 4684 1741 
L 678 1741 
L 678 2272 
z
" transform="scale(0.015625)"/>
        <path id="DejaVuSans-31" d="M 794 531 
L 1825 531 
L 1825 4091 
L 703 3866 
L 703 4441 
L 1819 4666 
L 2450 4666 
L 2450 531 
L 3481 531 
L 3481 0 
L 794 0 
L 794 531 
z
" transform="scale(0.015625)"/>
        <path id="DejaVuSans-30" d="M 2034 4250 
Q 1547 4250 1301 3770 
Q 1056 3291 1056 2328 
Q 1056 1369 1301 889 
Q 1547 409 2034 409 
Q 2525 409 2770 889 
Q 3016 1369 3016 2328 
Q 3016 3291 2770 3770 
Q 2525 4250 2034 4250 
z
M 2034 4750 
Q 2819 4750 3233 4129 
Q 3647 3509 3647 2328 
Q 3647 1150 3233 529 
Q 2819 -91 2034 -91 
Q 1250 -91 836 529 
Q 422 1150 422 2328 
Q 422 3509 836 4129 
Q 1250 4750 2034 4750 
z
" transform="scale(0.015625)"/>
       </defs>
       <use xlink:href="#DejaVuSans-2212"/>
       <use xlink:href="#DejaVuSans-31" transform="translate(83.789062 0)"/>
       <use xlink:href="#DejaVuSans-30" transform="translate(147.412109 0)"/>
      </g>
     </g>
    </g>
    <g id="xtick_2">
     <g id="line2d_3">
      <path d="M 179.205964 240.24351 
L 179.205964 3.00024 
" clip-path="url(#p8117dbc594)" style="fill: none; stroke: #b0b0b0; stroke-opacity: 0.18; stroke-width: 0.8; stroke-linecap: square"/>
     </g>
     <g id="line2d_4">
      <g>
       <use xlink:href="#med93c653e5" x="179.205964" y="240.24351" style="stroke: #000000; stroke-width: 0.8"/>
      </g>
     </g>
     <g id="text_2">
      <!-- 0 -->
      <g transform="translate(176.024714 254.841947) scale(0.1 -0.1)">
       <use xlink:href="#DejaVuSans-30"/>
      </g>
     </g>
    </g>
    <g id="xtick_3">
     <g id="line2d_5">
      <path d="M 288.576619 240.24351 
L 288.576619 3.00024 
" clip-path="url(#p8117dbc594)" style="fill: none; stroke: #b0b0b0; stroke-opacity: 0.18; stroke-width: 0.8; stroke-linecap: square"/>
     </g>
     <g id="line2d_6">
      <g>
       <use xlink:href="#med93c653e5" x="288.576619" y="240.24351" style="stroke: #000000; stroke-width: 0.8"/>
      </g>
     </g>
     <g id="text_3">
      <!-- 10 -->
      <g transform="translate(282.214119 254.841947) scale(0.1 -0.1)">
       <use xlink:href="#DejaVuSans-31"/>
       <use xlink:href="#DejaVuSans-30" transform="translate(63.623047 0)"/>
      </g>
     </g>
    </g>
    <g id="text_4">
     <!-- One-at-a-time multiplier change (%) -->
     <g transform="translate(88.545807 268.520072) scale(0.1 -0.1)">
      <defs>
       <path id="DejaVuSans-4f" d="M 2522 4238 
Q 1834 4238 1429 3725 
Q 1025 3213 1025 2328 
Q 1025 1447 1429 934 
Q 1834 422 2522 422 
Q 3209 422 3611 934 
Q 4013 1447 4013 2328 
Q 4013 3213 3611 3725 
Q 3209 4238 2522 4238 
z
M 2522 4750 
Q 3503 4750 4090 4092 
Q 4678 3434 4678 2328 
Q 4678 1225 4090 567 
Q 3503 -91 2522 -91 
Q 1538 -91 948 565 
Q 359 1222 359 2328 
Q 359 3434 948 4092 
Q 1538 4750 2522 4750 
z
" transform="scale(0.015625)"/>
       <path id="DejaVuSans-6e" d="M 3513 2113 
L 3513 0 
L 2938 0 
L 2938 2094 
Q 2938 2591 2744 2837 
Q 2550 3084 2163 3084 
Q 1697 3084 1428 2787 
Q 1159 2491 1159 1978 
L 1159 0 
L 581 0 
L 581 3500 
L 1159 3500 
L 1159 2956 
Q 1366 3272 1645 3428 
Q 1925 3584 2291 3584 
Q 2894 3584 3203 3211 
Q 3513 2838 3513 2113 
z
" transform="scale(0.015625)"/>
       <path id="DejaVuSans-65" d="M 3597 1894 
L 3597 1613 
L 953 1613 
Q 991 1019 1311 708 
Q 1631 397 2203 397 
Q 2534 397 2845 478 
Q 3156 559 3463 722 
L 3463 178 
Q 3153 47 2828 -22 
Q 2503 -91 2169 -91 
Q 1331 -91 842 396 
Q 353 884 353 1716 
Q 353 2575 817 3079 
Q 1281 3584 2069 3584 
Q 2775 3584 3186 3129 
Q 3597 2675 3597 1894 
z
M 3022 2063 
Q 3016 2534 2758 2815 
Q 2500 3097 2075 3097 
Q 1594 3097 1305 2825 
Q 1016 2553 972 2059 
L 3022 2063 
z
" transform="scale(0.015625)"/>
       <path id="DejaVuSans-2d" d="M 313 2009 
L 1997 2009 
L 1997 1497 
L 313 1497 
L 313 2009 
z
" transform="scale(0.015625)"/>
       <path id="DejaVuSans-61" d="M 2194 1759 
Q 1497 1759 1228 1600 
Q 959 1441 959 1056 
Q 959 750 1161 570 
Q 1363 391 1709 391 
Q 2188 391 2477 730 
Q 2766 1069 2766 1631 
L 2766 1759 
L 2194 1759 
z
M 3341 1997 
L 3341 0 
L 2766 0 
L 2766 531 
Q 2569 213 2275 61 
Q 1981 -91 1556 -91 
Q 1019 -91 701 211 
Q 384 513 384 1019 
Q 384 1609 779 1909 
Q 1175 2209 1959 2209 
L 2766 2209 
L 2766 2266 
Q 2766 2663 2505 2880 
Q 2244 3097 1772 3097 
Q 1472 3097 1187 3025 
Q 903 2953 641 2809 
L 641 3341 
Q 956 3463 1253 3523 
Q 1550 3584 1831 3584 
Q 2591 3584 2966 3190 
Q 3341 2797 3341 1997 
z
" transform="scale(0.015625)"/>
       <path id="DejaVuSans-74" d="M 1172 4494 
L 1172 3500 
L 2356 3500 
L 2356 3053 
L 1172 3053 
L 1172 1153 
Q 1172 725 1289 603 
Q 1406 481 1766 481 
L 2356 481 
L 2356 0 
L 1766 0 
Q 1100 0 847 248 
Q 594 497 594 1153 
L 594 3053 
L 172 3053 
L 172 3500 
L 594 3500 
L 594 4494 
L 1172 4494 
z
" transform="scale(0.015625)"/>
       <path id="DejaVuSans-69" d="M 603 3500 
L 1178 3500 
L 1178 0 
L 603 0 
L 603 3500 
z
M 603 4863 
L 1178 4863 
L 1178 4134 
L 603 4134 
L 603 4863 
z
" transform="scale(0.015625)"/>
       <path id="DejaVuSans-6d" d="M 3328 2828 
Q 3544 3216 3844 3400 
Q 4144 3584 4550 3584 
Q 5097 3584 5394 3201 
Q 5691 2819 5691 2113 
L 5691 0 
L 5113 0 
L 5113 2094 
Q 5113 2597 4934 2840 
Q 4756 3084 4391 3084 
Q 3944 3084 3684 2787 
Q 3425 2491 3425 1978 
L 3425 0 
L 2847 0 
L 2847 2094 
Q 2847 2600 2669 2842 
Q 2491 3084 2119 3084 
Q 1678 3084 1418 2786 
Q 1159 2488 1159 1978 
L 1159 0 
L 581 0 
L 581 3500 
L 1159 3500 
L 1159 2956 
Q 1356 3278 1631 3431 
Q 1906 3584 2284 3584 
Q 2666 3584 2933 3390 
Q 3200 3197 3328 2828 
z
" transform="scale(0.015625)"/>
       <path id="DejaVuSans-20" transform="scale(0.015625)"/>
       <path id="DejaVuSans-75" d="M 544 1381 
L 544 3500 
L 1119 3500 
L 1119 1403 
Q 1119 906 1312 657 
Q 1506 409 1894 409 
Q 2359 409 2629 706 
Q 2900 1003 2900 1516 
L 2900 3500 
L 3475 3500 
L 3475 0 
L 2900 0 
L 2900 538 
Q 2691 219 2414 64 
Q 2138 -91 1772 -91 
Q 1169 -91 856 284 
Q 544 659 544 1381 
z
M 1991 3584 
L 1991 3584 
z
" transform="scale(0.015625)"/>
       <path id="DejaVuSans-6c" d="M 603 4863 
L 1178 4863 
L 1178 0 
L 603 0 
L 603 4863 
z
" transform="scale(0.015625)"/>
       <path id="DejaVuSans-70" d="M 1159 525 
L 1159 -1331 
L 581 -1331 
L 581 3500 
L 1159 3500 
L 1159 2969 
Q 1341 3281 1617 3432 
Q 1894 3584 2278 3584 
Q 2916 3584 3314 3078 
Q 3713 2572 3713 1747 
Q 3713 922 3314 415 
Q 2916 -91 2278 -91 
Q 1894 -91 1617 61 
Q 1341 213 1159 525 
z
M 3116 1747 
Q 3116 2381 2855 2742 
Q 2594 3103 2138 3103 
Q 1681 3103 1420 2742 
Q 1159 2381 1159 1747 
Q 1159 1113 1420 752 
Q 1681 391 2138 391 
Q 2594 391 2855 752 
Q 3116 1113 3116 1747 
z
" transform="scale(0.015625)"/>
       <path id="DejaVuSans-72" d="M 2631 2963 
Q 2534 3019 2420 3045 
Q 2306 3072 2169 3072 
Q 1681 3072 1420 2755 
Q 1159 2438 1159 1844 
L 1159 0 
L 581 0 
L 581 3500 
L 1159 3500 
L 1159 2956 
Q 1341 3275 1631 3429 
Q 1922 3584 2338 3584 
Q 2397 3584 2469 3576 
Q 2541 3569 2628 3553 
L 2631 2963 
z
" transform="scale(0.015625)"/>
       <path id="DejaVuSans-63" d="M 3122 3366 
L 3122 2828 
Q 2878 2963 2633 3030 
Q 2388 3097 2138 3097 
Q 1578 3097 1268 2742 
Q 959 2388 959 1747 
Q 959 1106 1268 751 
Q 1578 397 2138 397 
Q 2388 397 2633 464 
Q 2878 531 3122 666 
L 3122 134 
Q 2881 22 2623 -34 
Q 2366 -91 2075 -91 
Q 1284 -91 818 406 
Q 353 903 353 1747 
Q 353 2603 823 3093 
Q 1294 3584 2113 3584 
Q 2378 3584 2631 3529 
Q 2884 3475 3122 3366 
z
" transform="scale(0.015625)"/>
       <path id="DejaVuSans-68" d="M 3513 2113 
L 3513 0 
L 2938 0 
L 2938 2094 
Q 2938 2591 2744 2837 
Q 2550 3084 2163 3084 
Q 1697 3084 1428 2787 
Q 1159 2491 1159 1978 
L 1159 0 
L 581 0 
L 581 4863 
L 1159 4863 
L 1159 2956 
Q 1366 3272 1645 3428 
Q 1925 3584 2291 3584 
Q 2894 3584 3203 3211 
Q 3513 2838 3513 2113 
z
" transform="scale(0.015625)"/>
       <path id="DejaVuSans-67" d="M 2906 1791 
Q 2906 2416 2648 2759 
Q 2391 3103 1925 3103 
Q 1463 3103 1205 2759 
Q 947 2416 947 1791 
Q 947 1169 1205 825 
Q 1463 481 1925 481 
Q 2391 481 2648 825 
Q 2906 1169 2906 1791 
z
M 3481 434 
Q 3481 -459 3084 -895 
Q 2688 -1331 1869 -1331 
Q 1566 -1331 1297 -1286 
Q 1028 -1241 775 -1147 
L 775 -588 
Q 1028 -725 1275 -790 
Q 1522 -856 1778 -856 
Q 2344 -856 2625 -561 
Q 2906 -266 2906 331 
L 2906 616 
Q 2728 306 2450 153 
Q 2172 0 1784 0 
Q 1141 0 747 490 
Q 353 981 353 1791 
Q 353 2603 747 3093 
Q 1141 3584 1784 3584 
Q 2172 3584 2450 3431 
Q 2728 3278 2906 2969 
L 2906 3500 
L 3481 3500 
L 3481 434 
z
" transform="scale(0.015625)"/>
       <path id="DejaVuSans-28" d="M 1984 4856 
Q 1566 4138 1362 3434 
Q 1159 2731 1159 2009 
Q 1159 1288 1364 580 
Q 1569 -128 1984 -844 
L 1484 -844 
Q 1016 -109 783 600 
Q 550 1309 550 2009 
Q 550 2706 781 3412 
Q 1013 4119 1484 4856 
L 1984 4856 
z
" transform="scale(0.015625)"/>
       <path id="DejaVuSans-25" d="M 4653 2053 
Q 4381 2053 4226 1822 
Q 4072 1591 4072 1178 
Q 4072 772 4226 539 
Q 4381 306 4653 306 
Q 4919 306 5073 539 
Q 5228 772 5228 1178 
Q 5228 1588 5073 1820 
Q 4919 2053 4653 2053 
z
M 4653 2450 
Q 5147 2450 5437 2106 
Q 5728 1763 5728 1178 
Q 5728 594 5436 251 
Q 5144 -91 4653 -91 
Q 4153 -91 3862 251 
Q 3572 594 3572 1178 
Q 3572 1766 3864 2108 
Q 4156 2450 4653 2450 
z
M 1428 4353 
Q 1159 4353 1004 4120 
Q 850 3888 850 3481 
Q 850 3069 1003 2837 
Q 1156 2606 1428 2606 
Q 1700 2606 1854 2837 
Q 2009 3069 2009 3481 
Q 2009 3884 1853 4118 
Q 1697 4353 1428 4353 
z
M 4250 4750 
L 4750 4750 
L 1831 -91 
L 1331 -91 
L 4250 4750 
z
M 1428 4750 
Q 1922 4750 2215 4408 
Q 2509 4066 2509 3481 
Q 2509 2891 2217 2550 
Q 1925 2209 1428 2209 
Q 931 2209 642 2551 
Q 353 2894 353 3481 
Q 353 4063 643 4406 
Q 934 4750 1428 4750 
z
" transform="scale(0.015625)"/>
       <path id="DejaVuSans-29" d="M 513 4856 
L 1013 4856 
Q 1481 4119 1714 3412 
Q 1947 2706 1947 2009 
Q 1947 1309 1714 600 
Q 1481 -109 1013 -844 
L 513 -844 
Q 928 -128 1133 580 
Q 1338 1288 1338 2009 
Q 1338 2731 1133 3434 
Q 928 4138 513 4856 
z
" transform="scale(0.015625)"/>
      </defs>
      <use xlink:href="#DejaVuSans-4f"/>
      <use xlink:href="#DejaVuSans-6e" transform="translate(78.710938 0)"/>
      <use xlink:href="#DejaVuSans-65" transform="translate(142.089844 0)"/>
      <use xlink:href="#DejaVuSans-2d" transform="translate(203.613281 0)"/>
      <use xlink:href="#DejaVuSans-61" transform="translate(239.697266 0)"/>
      <use xlink:href="#DejaVuSans-74" transform="translate(300.976562 0)"/>
      <use xlink:href="#DejaVuSans-2d" transform="translate(340.185547 0)"/>
      <use xlink:href="#DejaVuSans-61" transform="translate(376.269531 0)"/>
      <use xlink:href="#DejaVuSans-2d" transform="translate(437.548828 0)"/>
      <use xlink:href="#DejaVuSans-74" transform="translate(473.632812 0)"/>
      <use xlink:href="#DejaVuSans-69" transform="translate(512.841797 0)"/>
      <use xlink:href="#DejaVuSans-6d" transform="translate(540.625 0)"/>
      <use xlink:href="#DejaVuSans-65" transform="translate(638.037109 0)"/>
      <use xlink:href="#DejaVuSans-20" transform="translate(699.560547 0)"/>
      <use xlink:href="#DejaVuSans-6d" transform="translate(731.347656 0)"/>
      <use xlink:href="#DejaVuSans-75" transform="translate(828.759766 0)"/>
      <use xlink:href="#DejaVuSans-6c" transform="translate(892.138672 0)"/>
      <use xlink:href="#DejaVuSans-74" transform="translate(919.921875 0)"/>
      <use xlink:href="#DejaVuSans-69" transform="translate(959.130859 0)"/>
      <use xlink:href="#DejaVuSans-70" transform="translate(986.914062 0)"/>
      <use xlink:href="#DejaVuSans-6c" transform="translate(1050.390625 0)"/>
      <use xlink:href="#DejaVuSans-69" transform="translate(1078.173828 0)"/>
      <use xlink:href="#DejaVuSans-65" transform="translate(1105.957031 0)"/>
      <use xlink:href="#DejaVuSans-72" transform="translate(1167.480469 0)"/>
      <use xlink:href="#DejaVuSans-20" transform="translate(1208.59375 0)"/>
      <use xlink:href="#DejaVuSans-63" transform="translate(1240.380859 0)"/>
      <use xlink:href="#DejaVuSans-68" transform="translate(1295.361328 0)"/>
      <use xlink:href="#DejaVuSans-61" transform="translate(1358.740234 0)"/>
      <use xlink:href="#DejaVuSans-6e" transform="translate(1420.019531 0)"/>
      <use xlink:href="#DejaVuSans-67" transform="translate(1483.398438 0)"/>
      <use xlink:href="#DejaVuSans-65" transform="translate(1546.875 0)"/>
      <use xlink:href="#DejaVuSans-20" transform="translate(1608.398438 0)"/>
      <use xlink:href="#DejaVuSans-28" transform="translate(1640.185547 0)"/>
      <use xlink:href="#DejaVuSans-25" transform="translate(1679.199219 0)"/>
      <use xlink:href="#DejaVuSans-29" transform="translate(1774.21875 0)"/>
     </g>
    </g>
   </g>
   <g id="matplotlib.axis_2">
    <g id="ytick_1">
     <g id="line2d_7">
      <path d="M 47.961178 198.976953 
L 310.45075 198.976953 
" clip-path="url(#p8117dbc594)" style="fill: none; stroke: #b0b0b0; stroke-opacity: 0.18; stroke-width: 0.8; stroke-linecap: square"/>
     </g>
     <g id="line2d_8">
      <defs>
       <path id="mc18eb74c9a" d="M 0 0 
L -3.5 0 
" style="stroke: #000000; stroke-width: 0.8"/>
      </defs>
      <g>
       <use xlink:href="#mc18eb74c9a" x="47.961178" y="198.976953" style="stroke: #000000; stroke-width: 0.8"/>
      </g>
     </g>
     <g id="text_5">
      <!-- −0.4 -->
      <g transform="translate(16.678365 202.776172) scale(0.1 -0.1)">
       <defs>
        <path id="DejaVuSans-2e" d="M 684 794 
L 1344 794 
L 1344 0 
L 684 0 
L 684 794 
z
" transform="scale(0.015625)"/>
        <path id="DejaVuSans-34" d="M 2419 4116 
L 825 1625 
L 2419 1625 
L 2419 4116 
z
M 2253 4666 
L 3047 4666 
L 3047 1625 
L 3713 1625 
L 3713 1100 
L 3047 1100 
L 3047 0 
L 2419 0 
L 2419 1100 
L 313 1100 
L 313 1709 
L 2253 4666 
z
" transform="scale(0.015625)"/>
       </defs>
       <use xlink:href="#DejaVuSans-2212"/>
       <use xlink:href="#DejaVuSans-30" transform="translate(83.789062 0)"/>
       <use xlink:href="#DejaVuSans-2e" transform="translate(147.412109 0)"/>
       <use xlink:href="#DejaVuSans-34" transform="translate(179.199219 0)"/>
      </g>
     </g>
    </g>
    <g id="ytick_2">
     <g id="line2d_9">
      <path d="M 47.961178 152.569952 
L 310.45075 152.569952 
" clip-path="url(#p8117dbc594)" style="fill: none; stroke: #b0b0b0; stroke-opacity: 0.18; stroke-width: 0.8; stroke-linecap: square"/>
     </g>
     <g id="line2d_10">
      <g>
       <use xlink:href="#mc18eb74c9a" x="47.961178" y="152.569952" style="stroke: #000000; stroke-width: 0.8"/>
      </g>
     </g>
     <g id="text_6">
      <!-- −0.2 -->
      <g transform="translate(16.678365 156.369171) scale(0.1 -0.1)">
       <defs>
        <path id="DejaVuSans-32" d="M 1228 531 
L 3431 531 
L 3431 0 
L 469 0 
L 469 531 
Q 828 903 1448 1529 
Q 2069 2156 2228 2338 
Q 2531 2678 2651 2914 
Q 2772 3150 2772 3378 
Q 2772 3750 2511 3984 
Q 2250 4219 1831 4219 
Q 1534 4219 1204 4116 
Q 875 4013 500 3803 
L 500 4441 
Q 881 4594 1212 4672 
Q 1544 4750 1819 4750 
Q 2544 4750 2975 4387 
Q 3406 4025 3406 3419 
Q 3406 3131 3298 2873 
Q 3191 2616 2906 2266 
Q 2828 2175 2409 1742 
Q 1991 1309 1228 531 
z
" transform="scale(0.015625)"/>
       </defs>
       <use xlink:href="#DejaVuSans-2212"/>
       <use xlink:href="#DejaVuSans-30" transform="translate(83.789062 0)"/>
       <use xlink:href="#DejaVuSans-2e" transform="translate(147.412109 0)"/>
       <use xlink:href="#DejaVuSans-32" transform="translate(179.199219 0)"/>
      </g>
     </g>
    </g>
    <g id="ytick_3">
     <g id="line2d_11">
      <path d="M 47.961178 106.162951 
L 310.45075 106.162951 
" clip-path="url(#p8117dbc594)" style="fill: none; stroke: #b0b0b0; stroke-opacity: 0.18; stroke-width: 0.8; stroke-linecap: square"/>
     </g>
     <g id="line2d_12">
      <g>
       <use xlink:href="#mc18eb74c9a" x="47.961178" y="106.162951" style="stroke: #000000; stroke-width: 0.8"/>
      </g>
     </g>
     <g id="text_7">
      <!-- 0.0 -->
      <g transform="translate(25.058053 109.96217) scale(0.1 -0.1)">
       <use xlink:href="#DejaVuSans-30"/>
       <use xlink:href="#DejaVuSans-2e" transform="translate(63.623047 0)"/>
       <use xlink:href="#DejaVuSans-30" transform="translate(95.410156 0)"/>
      </g>
     </g>
    </g>
    <g id="ytick_4">
     <g id="line2d_13">
      <path d="M 47.961178 59.75595 
L 310.45075 59.75595 
" clip-path="url(#p8117dbc594)" style="fill: none; stroke: #b0b0b0; stroke-opacity: 0.18; stroke-width: 0.8; stroke-linecap: square"/>
     </g>
     <g id="line2d_14">
      <g>
       <use xlink:href="#mc18eb74c9a" x="47.961178" y="59.75595" style="stroke: #000000; stroke-width: 0.8"/>
      </g>
     </g>
     <g id="text_8">
      <!-- 0.2 -->
      <g transform="translate(25.058053 63.555169) scale(0.1 -0.1)">
       <use xlink:href="#DejaVuSans-30"/>
       <use xlink:href="#DejaVuSans-2e" transform="translate(63.623047 0)"/>
       <use xlink:href="#DejaVuSans-32" transform="translate(95.410156 0)"/>
      </g>
     </g>
    </g>
    <g id="ytick_5">
     <g id="line2d_15">
      <path d="M 47.961178 13.348949 
L 310.45075 13.348949 
" clip-path="url(#p8117dbc594)" style="fill: none; stroke: #b0b0b0; stroke-opacity: 0.18; stroke-width: 0.8; stroke-linecap: square"/>
     </g>
     <g id="line2d_16">
      <g>
       <use xlink:href="#mc18eb74c9a" x="47.961178" y="13.348949" style="stroke: #000000; stroke-width: 0.8"/>
      </g>
     </g>
     <g id="text_9">
      <!-- 0.4 -->
      <g transform="translate(25.058053 17.148167) scale(0.1 -0.1)">
       <use xlink:href="#DejaVuSans-30"/>
       <use xlink:href="#DejaVuSans-2e" transform="translate(63.623047 0)"/>
       <use xlink:href="#DejaVuSans-34" transform="translate(95.410156 0)"/>
      </g>
     </g>
    </g>
    <g id="text_10">
     <!-- Capture change (percentage points) -->
     <g transform="translate(10.598677 212.389844) rotate(-90) scale(0.1 -0.1)">
      <defs>
       <path id="DejaVuSans-43" d="M 4122 4306 
L 4122 3641 
Q 3803 3938 3442 4084 
Q 3081 4231 2675 4231 
Q 1875 4231 1450 3742 
Q 1025 3253 1025 2328 
Q 1025 1406 1450 917 
Q 1875 428 2675 428 
Q 3081 428 3442 575 
Q 3803 722 4122 1019 
L 4122 359 
Q 3791 134 3420 21 
Q 3050 -91 2638 -91 
Q 1578 -91 968 557 
Q 359 1206 359 2328 
Q 359 3453 968 4101 
Q 1578 4750 2638 4750 
Q 3056 4750 3426 4639 
Q 3797 4528 4122 4306 
z
" transform="scale(0.015625)"/>
       <path id="DejaVuSans-6f" d="M 1959 3097 
Q 1497 3097 1228 2736 
Q 959 2375 959 1747 
Q 959 1119 1226 758 
Q 1494 397 1959 397 
Q 2419 397 2687 759 
Q 2956 1122 2956 1747 
Q 2956 2369 2687 2733 
Q 2419 3097 1959 3097 
z
M 1959 3584 
Q 2709 3584 3137 3096 
Q 3566 2609 3566 1747 
Q 3566 888 3137 398 
Q 2709 -91 1959 -91 
Q 1206 -91 779 398 
Q 353 888 353 1747 
Q 353 2609 779 3096 
Q 1206 3584 1959 3584 
z
" transform="scale(0.015625)"/>
       <path id="DejaVuSans-73" d="M 2834 3397 
L 2834 2853 
Q 2591 2978 2328 3040 
Q 2066 3103 1784 3103 
Q 1356 3103 1142 2972 
Q 928 2841 928 2578 
Q 928 2378 1081 2264 
Q 1234 2150 1697 2047 
L 1894 2003 
Q 2506 1872 2764 1633 
Q 3022 1394 3022 966 
Q 3022 478 2636 193 
Q 2250 -91 1575 -91 
Q 1294 -91 989 -36 
Q 684 19 347 128 
L 347 722 
Q 666 556 975 473 
Q 1284 391 1588 391 
Q 1994 391 2212 530 
Q 2431 669 2431 922 
Q 2431 1156 2273 1281 
Q 2116 1406 1581 1522 
L 1381 1569 
Q 847 1681 609 1914 
Q 372 2147 372 2553 
Q 372 3047 722 3315 
Q 1072 3584 1716 3584 
Q 2034 3584 2315 3537 
Q 2597 3491 2834 3397 
z
" transform="scale(0.015625)"/>
      </defs>
      <use xlink:href="#DejaVuSans-43"/>
      <use xlink:href="#DejaVuSans-61" transform="translate(69.824219 0)"/>
      <use xlink:href="#DejaVuSans-70" transform="translate(131.103516 0)"/>
      <use xlink:href="#DejaVuSans-74" transform="translate(194.580078 0)"/>
      <use xlink:href="#DejaVuSans-75" transform="translate(233.789062 0)"/>
      <use xlink:href="#DejaVuSans-72" transform="translate(297.167969 0)"/>
      <use xlink:href="#DejaVuSans-65" transform="translate(336.03125 0)"/>
      <use xlink:href="#DejaVuSans-20" transform="translate(397.554688 0)"/>
      <use xlink:href="#DejaVuSans-63" transform="translate(429.341797 0)"/>
      <use xlink:href="#DejaVuSans-68" transform="translate(484.322266 0)"/>
      <use xlink:href="#DejaVuSans-61" transform="translate(547.701172 0)"/>
      <use xlink:href="#DejaVuSans-6e" transform="translate(608.980469 0)"/>
      <use xlink:href="#DejaVuSans-67" transform="translate(672.359375 0)"/>
      <use xlink:href="#DejaVuSans-65" transform="translate(735.835938 0)"/>
      <use xlink:href="#DejaVuSans-20" transform="translate(797.359375 0)"/>
      <use xlink:href="#DejaVuSans-28" transform="translate(829.146484 0)"/>
      <use xlink:href="#DejaVuSans-70" transform="translate(868.160156 0)"/>
      <use xlink:href="#DejaVuSans-65" transform="translate(931.636719 0)"/>
      <use xlink:href="#DejaVuSans-72" transform="translate(993.160156 0)"/>
      <use xlink:href="#DejaVuSans-63" transform="translate(1032.023438 0)"/>
      <use xlink:href="#DejaVuSans-65" transform="translate(1087.003906 0)"/>
      <use xlink:href="#DejaVuSans-6e" transform="translate(1148.527344 0)"/>
      <use xlink:href="#DejaVuSans-74" transform="translate(1211.90625 0)"/>
      <use xlink:href="#DejaVuSans-61" transform="translate(1251.115234 0)"/>
      <use xlink:href="#DejaVuSans-67" transform="translate(1312.394531 0)"/>
      <use xlink:href="#DejaVuSans-65" transform="translate(1375.871094 0)"/>
      <use xlink:href="#DejaVuSans-20" transform="translate(1437.394531 0)"/>
      <use xlink:href="#DejaVuSans-70" transform="translate(1469.181641 0)"/>
      <use xlink:href="#DejaVuSans-6f" transform="translate(1532.658203 0)"/>
      <use xlink:href="#DejaVuSans-69" transform="translate(1593.839844 0)"/>
      <use xlink:href="#DejaVuSans-6e" transform="translate(1621.623047 0)"/>
      <use xlink:href="#DejaVuSans-74" transform="translate(1685.001953 0)"/>
      <use xlink:href="#DejaVuSans-73" transform="translate(1724.210938 0)"/>
      <use xlink:href="#DejaVuSans-29" transform="translate(1776.310547 0)"/>
     </g>
    </g>
   </g>
   <g id="line2d_17">
    <path d="M 47.961178 106.162951 
L 310.45075 106.162951 
" clip-path="url(#p8117dbc594)" style="fill: none; stroke: #666666; stroke-width: 0.7; stroke-linecap: square"/>
   </g>
   <g id="line2d_18">
    <defs>
     <path id="m0a5dc1df90" d="M -3 3 
L 3 -3 
M -3 -3 
L 3 3 
" style="stroke: #000000"/>
    </defs>
    <g clip-path="url(#p8117dbc594)">
     <use xlink:href="#m0a5dc1df90" x="179.205964" y="106.162951" style="stroke: #000000"/>
    </g>
   </g>
   <g id="patch_4">
    <path d="M 47.961178 240.24351 
L 47.961178 3.00024 
" style="fill: none; stroke: #000000; stroke-width: 0.8; stroke-linejoin: miter; stroke-linecap: square"/>
   </g>
   <g id="patch_5">
    <path d="M 310.45075 240.24351 
L 310.45075 3.00024 
" style="fill: none; stroke: #000000; stroke-width: 0.8; stroke-linejoin: miter; stroke-linecap: square"/>
   </g>
   <g id="patch_6">
    <path d="M 47.961178 240.24351 
L 310.45075 240.24351 
" style="fill: none; stroke: #000000; stroke-width: 0.8; stroke-linejoin: miter; stroke-linecap: square"/>
   </g>
   <g id="patch_7">
    <path d="M 47.961178 3.00024 
L 310.45075 3.00024 
" style="fill: none; stroke: #000000; stroke-width: 0.8; stroke-linejoin: miter; stroke-linecap: square"/>
   </g>
   <g id="legend_1">
    <g id="patch_8">
     <path d="M 179.321062 191.388979 
L 193.321062 191.388979 
L 193.321062 186.488979 
L 179.321062 186.488979 
z
" style="fill: #e6e6e6; stroke: #e6e6e6; stroke-linejoin: miter"/>
    </g>
    <g id="text_11">
     <!-- Prior mesh/tolerance change -->
     <g transform="translate(198.921062 191.388979) scale(0.07 -0.07)">
      <defs>
       <path id="DejaVuSans-50" d="M 1259 4147 
L 1259 2394 
L 2053 2394 
Q 2494 2394 2734 2622 
Q 2975 2850 2975 3272 
Q 2975 3691 2734 3919 
Q 2494 4147 2053 4147 
L 1259 4147 
z
M 628 4666 
L 2053 4666 
Q 2838 4666 3239 4311 
Q 3641 3956 3641 3272 
Q 3641 2581 3239 2228 
Q 2838 1875 2053 1875 
L 1259 1875 
L 1259 0 
L 628 0 
L 628 4666 
z
" transform="scale(0.015625)"/>
       <path id="DejaVuSans-2f" d="M 1625 4666 
L 2156 4666 
L 531 -594 
L 0 -594 
L 1625 4666 
z
" transform="scale(0.015625)"/>
      </defs>
      <use xlink:href="#DejaVuSans-50"/>
      <use xlink:href="#DejaVuSans-72" transform="translate(58.552734 0)"/>
      <use xlink:href="#DejaVuSans-69" transform="translate(99.666016 0)"/>
      <use xlink:href="#DejaVuSans-6f" transform="translate(127.449219 0)"/>
      <use xlink:href="#DejaVuSans-72" transform="translate(188.630859 0)"/>
      <use xlink:href="#DejaVuSans-20" transform="translate(229.744141 0)"/>
      <use xlink:href="#DejaVuSans-6d" transform="translate(261.53125 0)"/>
      <use xlink:href="#DejaVuSans-65" transform="translate(358.943359 0)"/>
      <use xlink:href="#DejaVuSans-73" transform="translate(420.466797 0)"/>
      <use xlink:href="#DejaVuSans-68" transform="translate(472.566406 0)"/>
      <use xlink:href="#DejaVuSans-2f" transform="translate(535.945312 0)"/>
      <use xlink:href="#DejaVuSans-74" transform="translate(569.636719 0)"/>
      <use xlink:href="#DejaVuSans-6f" transform="translate(608.845703 0)"/>
      <use xlink:href="#DejaVuSans-6c" transform="translate(670.027344 0)"/>
      <use xlink:href="#DejaVuSans-65" transform="translate(697.810547 0)"/>
      <use xlink:href="#DejaVuSans-72" transform="translate(759.333984 0)"/>
      <use xlink:href="#DejaVuSans-61" transform="translate(800.447266 0)"/>
      <use xlink:href="#DejaVuSans-6e" transform="translate(861.726562 0)"/>
      <use xlink:href="#DejaVuSans-63" transform="translate(925.105469 0)"/>
      <use xlink:href="#DejaVuSans-65" transform="translate(980.085938 0)"/>
      <use xlink:href="#DejaVuSans-20" transform="translate(1041.609375 0)"/>
      <use xlink:href="#DejaVuSans-63" transform="translate(1073.396484 0)"/>
      <use xlink:href="#DejaVuSans-68" transform="translate(1128.376953 0)"/>
      <use xlink:href="#DejaVuSans-61" transform="translate(1191.755859 0)"/>
      <use xlink:href="#DejaVuSans-6e" transform="translate(1253.035156 0)"/>
      <use xlink:href="#DejaVuSans-67" transform="translate(1316.414062 0)"/>
      <use xlink:href="#DejaVuSans-65" transform="translate(1379.890625 0)"/>
     </g>
    </g>
    <g id="PathCollection_4">
     <g>
      <use xlink:href="#macc5bbd74d" x="186.321062" y="199.826166" style="fill: #0072b2; stroke: #0072b2"/>
     </g>
    </g>
    <g id="text_12">
     <!-- Liquid viscosity -->
     <g transform="translate(198.921062 201.663666) scale(0.07 -0.07)">
      <defs>
       <path id="DejaVuSans-4c" d="M 628 4666 
L 1259 4666 
L 1259 531 
L 3531 531 
L 3531 0 
L 628 0 
L 628 4666 
z
" transform="scale(0.015625)"/>
       <path id="DejaVuSans-71" d="M 947 1747 
Q 947 1113 1208 752 
Q 1469 391 1925 391 
Q 2381 391 2643 752 
Q 2906 1113 2906 1747 
Q 2906 2381 2643 2742 
Q 2381 3103 1925 3103 
Q 1469 3103 1208 2742 
Q 947 2381 947 1747 
z
M 2906 525 
Q 2725 213 2448 61 
Q 2172 -91 1784 -91 
Q 1150 -91 751 415 
Q 353 922 353 1747 
Q 353 2572 751 3078 
Q 1150 3584 1784 3584 
Q 2172 3584 2448 3432 
Q 2725 3281 2906 2969 
L 2906 3500 
L 3481 3500 
L 3481 -1331 
L 2906 -1331 
L 2906 525 
z
" transform="scale(0.015625)"/>
       <path id="DejaVuSans-64" d="M 2906 2969 
L 2906 4863 
L 3481 4863 
L 3481 0 
L 2906 0 
L 2906 525 
Q 2725 213 2448 61 
Q 2172 -91 1784 -91 
Q 1150 -91 751 415 
Q 353 922 353 1747 
Q 353 2572 751 3078 
Q 1150 3584 1784 3584 
Q 2172 3584 2448 3432 
Q 2725 3281 2906 2969 
z
M 947 1747 
Q 947 1113 1208 752 
Q 1469 391 1925 391 
Q 2381 391 2643 752 
Q 2906 1113 2906 1747 
Q 2906 2381 2643 2742 
Q 2381 3103 1925 3103 
Q 1469 3103 1208 2742 
Q 947 2381 947 1747 
z
" transform="scale(0.015625)"/>
       <path id="DejaVuSans-76" d="M 191 3500 
L 800 3500 
L 1894 563 
L 2988 3500 
L 3597 3500 
L 2284 0 
L 1503 0 
L 191 3500 
z
" transform="scale(0.015625)"/>
       <path id="DejaVuSans-79" d="M 2059 -325 
Q 1816 -950 1584 -1140 
Q 1353 -1331 966 -1331 
L 506 -1331 
L 506 -850 
L 844 -850 
Q 1081 -850 1212 -737 
Q 1344 -625 1503 -206 
L 1606 56 
L 191 3500 
L 800 3500 
L 1894 763 
L 2988 3500 
L 3597 3500 
L 2059 -325 
z
" transform="scale(0.015625)"/>
      </defs>
      <use xlink:href="#DejaVuSans-4c"/>
      <use xlink:href="#DejaVuSans-69" transform="translate(55.712891 0)"/>
      <use xlink:href="#DejaVuSans-71" transform="translate(83.496094 0)"/>
      <use xlink:href="#DejaVuSans-75" transform="translate(146.972656 0)"/>
      <use xlink:href="#DejaVuSans-69" transform="translate(210.351562 0)"/>
      <use xlink:href="#DejaVuSans-64" transform="translate(238.134766 0)"/>
      <use xlink:href="#DejaVuSans-20" transform="translate(301.611328 0)"/>
      <use xlink:href="#DejaVuSans-76" transform="translate(333.398438 0)"/>
      <use xlink:href="#DejaVuSans-69" transform="translate(392.578125 0)"/>
      <use xlink:href="#DejaVuSans-73" transform="translate(420.361328 0)"/>
      <use xlink:href="#DejaVuSans-63" transform="translate(472.460938 0)"/>
      <use xlink:href="#DejaVuSans-6f" transform="translate(527.441406 0)"/>
      <use xlink:href="#DejaVuSans-73" transform="translate(588.623047 0)"/>
      <use xlink:href="#DejaVuSans-69" transform="translate(640.722656 0)"/>
      <use xlink:href="#DejaVuSans-74" transform="translate(668.505859 0)"/>
      <use xlink:href="#DejaVuSans-79" transform="translate(707.714844 0)"/>
     </g>
    </g>
    <g id="PathCollection_5">
     <g>
      <use xlink:href="#m313cdd5f2a" x="186.321062" y="210.100854" style="fill: #d55e00; stroke: #d55e00"/>
     </g>
    </g>
    <g id="text_13">
     <!-- Liquid CO₂ diffusivity -->
     <g transform="translate(198.921062 211.938354) scale(0.07 -0.07)">
      <defs>
       <path id="DejaVuSans-2082" d="M 838 332 
L 2163 332 
L 2163 -24 
L 294 -24 
L 294 319 
Q 400 416 597 591 
Q 1672 1544 1672 1838 
Q 1672 2044 1509 2170 
Q 1347 2297 1081 2297 
Q 919 2297 728 2242 
Q 538 2188 313 2079 
L 313 2463 
Q 553 2551 761 2594 
Q 969 2638 1147 2638 
Q 1600 2638 1872 2432 
Q 2144 2226 2144 1888 
Q 2144 1454 1109 566 
Q 934 416 838 332 
z
" transform="scale(0.015625)"/>
       <path id="DejaVuSans-66" d="M 2375 4863 
L 2375 4384 
L 1825 4384 
Q 1516 4384 1395 4259 
Q 1275 4134 1275 3809 
L 1275 3500 
L 2222 3500 
L 2222 3053 
L 1275 3053 
L 1275 0 
L 697 0 
L 697 3053 
L 147 3053 
L 147 3500 
L 697 3500 
L 697 3744 
Q 697 4328 969 4595 
Q 1241 4863 1831 4863 
L 2375 4863 
z
" transform="scale(0.015625)"/>
      </defs>
      <use xlink:href="#DejaVuSans-4c"/>
      <use xlink:href="#DejaVuSans-69" transform="translate(55.712891 0)"/>
      <use xlink:href="#DejaVuSans-71" transform="translate(83.496094 0)"/>
      <use xlink:href="#DejaVuSans-75" transform="translate(146.972656 0)"/>
      <use xlink:href="#DejaVuSans-69" transform="translate(210.351562 0)"/>
      <use xlink:href="#DejaVuSans-64" transform="translate(238.134766 0)"/>
      <use xlink:href="#DejaVuSans-20" transform="translate(301.611328 0)"/>
      <use xlink:href="#DejaVuSans-43" transform="translate(333.398438 0)"/>
      <use xlink:href="#DejaVuSans-4f" transform="translate(403.222656 0)"/>
      <use xlink:href="#DejaVuSans-2082" transform="translate(481.933594 0)"/>
      <use xlink:href="#DejaVuSans-20" transform="translate(522.021484 0)"/>
      <use xlink:href="#DejaVuSans-64" transform="translate(553.808594 0)"/>
      <use xlink:href="#DejaVuSans-69" transform="translate(617.285156 0)"/>
      <use xlink:href="#DejaVuSans-66" transform="translate(645.068359 0)"/>
      <use xlink:href="#DejaVuSans-66" transform="translate(680.273438 0)"/>
      <use xlink:href="#DejaVuSans-75" transform="translate(715.478516 0)"/>
      <use xlink:href="#DejaVuSans-73" transform="translate(778.857422 0)"/>
      <use xlink:href="#DejaVuSans-69" transform="translate(830.957031 0)"/>
      <use xlink:href="#DejaVuSans-76" transform="translate(858.740234 0)"/>
      <use xlink:href="#DejaVuSans-69" transform="translate(917.919922 0)"/>
      <use xlink:href="#DejaVuSans-74" transform="translate(945.703125 0)"/>
      <use xlink:href="#DejaVuSans-79" transform="translate(984.912109 0)"/>
     </g>
    </g>
    <g id="PathCollection_6">
     <path d="M 186.321062 216.344412 
L 182.289934 224.40667 
L 190.352191 224.40667 
L 186.321062 216.344412 
z
" style="fill: none; stroke: #009e73"/>
    </g>
    <g id="text_14">
     <!-- Liquid CO₂ transfer coefficient -->
     <g transform="translate(198.921062 222.213041) scale(0.07 -0.07)">
      <use xlink:href="#DejaVuSans-4c"/>
      <use xlink:href="#DejaVuSans-69" transform="translate(55.712891 0)"/>
      <use xlink:href="#DejaVuSans-71" transform="translate(83.496094 0)"/>
      <use xlink:href="#DejaVuSans-75" transform="translate(146.972656 0)"/>
      <use xlink:href="#DejaVuSans-69" transform="translate(210.351562 0)"/>
      <use xlink:href="#DejaVuSans-64" transform="translate(238.134766 0)"/>
      <use xlink:href="#DejaVuSans-20" transform="translate(301.611328 0)"/>
      <use xlink:href="#DejaVuSans-43" transform="translate(333.398438 0)"/>
      <use xlink:href="#DejaVuSans-4f" transform="translate(403.222656 0)"/>
      <use xlink:href="#DejaVuSans-2082" transform="translate(481.933594 0)"/>
      <use xlink:href="#DejaVuSans-20" transform="translate(522.021484 0)"/>
      <use xlink:href="#DejaVuSans-74" transform="translate(553.808594 0)"/>
      <use xlink:href="#DejaVuSans-72" transform="translate(593.017578 0)"/>
      <use xlink:href="#DejaVuSans-61" transform="translate(634.130859 0)"/>
      <use xlink:href="#DejaVuSans-6e" transform="translate(695.410156 0)"/>
      <use xlink:href="#DejaVuSans-73" transform="translate(758.789062 0)"/>
      <use xlink:href="#DejaVuSans-66" transform="translate(810.888672 0)"/>
      <use xlink:href="#DejaVuSans-65" transform="translate(846.09375 0)"/>
      <use xlink:href="#DejaVuSans-72" transform="translate(907.617188 0)"/>
      <use xlink:href="#DejaVuSans-20" transform="translate(948.730469 0)"/>
      <use xlink:href="#DejaVuSans-63" transform="translate(980.517578 0)"/>
      <use xlink:href="#DejaVuSans-6f" transform="translate(1035.498047 0)"/>
      <use xlink:href="#DejaVuSans-65" transform="translate(1096.679688 0)"/>
      <use xlink:href="#DejaVuSans-66" transform="translate(1158.203125 0)"/>
      <use xlink:href="#DejaVuSans-66" transform="translate(1193.408203 0)"/>
      <use xlink:href="#DejaVuSans-69" transform="translate(1228.613281 0)"/>
      <use xlink:href="#DejaVuSans-63" transform="translate(1256.396484 0)"/>
      <use xlink:href="#DejaVuSans-69" transform="translate(1311.376953 0)"/>
      <use xlink:href="#DejaVuSans-65" transform="translate(1339.160156 0)"/>
      <use xlink:href="#DejaVuSans-6e" transform="translate(1400.683594 0)"/>
      <use xlink:href="#DejaVuSans-74" transform="translate(1464.0625 0)"/>
     </g>
    </g>
    <g id="line2d_19">
     <g>
      <use xlink:href="#m0a5dc1df90" x="186.321062" y="230.037729" style="stroke: #000000"/>
     </g>
    </g>
    <g id="text_15">
     <!-- Baseline -->
     <g transform="translate(198.921062 232.487729) scale(0.07 -0.07)">
      <defs>
       <path id="DejaVuSans-42" d="M 1259 2228 
L 1259 519 
L 2272 519 
Q 2781 519 3026 730 
Q 3272 941 3272 1375 
Q 3272 1813 3026 2020 
Q 2781 2228 2272 2228 
L 1259 2228 
z
M 1259 4147 
L 1259 2741 
L 2194 2741 
Q 2656 2741 2882 2914 
Q 3109 3088 3109 3444 
Q 3109 3797 2882 3972 
Q 2656 4147 2194 4147 
L 1259 4147 
z
M 628 4666 
L 2241 4666 
Q 2963 4666 3353 4366 
Q 3744 4066 3744 3513 
Q 3744 3084 3544 2831 
Q 3344 2578 2956 2516 
Q 3422 2416 3680 2098 
Q 3938 1781 3938 1306 
Q 3938 681 3513 340 
Q 3088 0 2303 0 
L 628 0 
L 628 4666 
z
" transform="scale(0.015625)"/>
      </defs>
      <use xlink:href="#DejaVuSans-42"/>
      <use xlink:href="#DejaVuSans-61" transform="translate(68.603516 0)"/>
      <use xlink:href="#DejaVuSans-73" transform="translate(129.882812 0)"/>
      <use xlink:href="#DejaVuSans-65" transform="translate(181.982422 0)"/>
      <use xlink:href="#DejaVuSans-6c" transform="translate(243.505859 0)"/>
      <use xlink:href="#DejaVuSans-69" transform="translate(271.289062 0)"/>
      <use xlink:href="#DejaVuSans-6e" transform="translate(299.072266 0)"/>
      <use xlink:href="#DejaVuSans-65" transform="translate(362.451172 0)"/>
     </g>
    </g>
   </g>
  </g>
  <g id="axes_2">
   <g id="patch_9">
    <path d="M 368.110187 240.24351 
L 630.59976 240.24351 
L 630.59976 3.00024 
L 368.110187 3.00024 
z
" style="fill: #ffffff"/>
   </g>
   <g id="patch_10">
    <path d="M 368.110187 229.459725 
L 630.59976 229.459725 
L 630.59976 13.784025 
L 368.110187 13.784025 
z
" clip-path="url(#pebaf1d581b)" style="fill: #e6e6e6; stroke: #e6e6e6; stroke-linejoin: miter"/>
   </g>
   <g id="PathCollection_7">
    <g clip-path="url(#pebaf1d581b)">
     <use xlink:href="#macc5bbd74d" x="389.984319" y="81.697634" style="fill: #0072b2; stroke: #0072b2"/>
     <use xlink:href="#macc5bbd74d" x="608.725629" y="172.58718" style="fill: #0072b2; stroke: #0072b2"/>
    </g>
   </g>
   <g id="PathCollection_8">
    <g clip-path="url(#pebaf1d581b)">
     <use xlink:href="#m313cdd5f2a" x="389.984319" y="110.757252" style="fill: #d55e00; stroke: #d55e00"/>
     <use xlink:href="#m313cdd5f2a" x="608.725629" y="137.292524" style="fill: #d55e00; stroke: #d55e00"/>
    </g>
   </g>
   <g id="PathCollection_9">
    <path d="M 389.984319 205.370595 
L 385.95319 213.432853 
L 394.015447 213.432853 
L 389.984319 205.370595 
z
" clip-path="url(#pebaf1d581b)" style="fill: none; stroke: #009e73"/>
    <path d="M 608.725629 75.595119 
L 604.6945 83.657377 
L 612.756758 83.657377 
L 608.725629 75.595119 
z
" clip-path="url(#pebaf1d581b)" style="fill: none; stroke: #009e73"/>
   </g>
   <g id="matplotlib.axis_3">
    <g id="xtick_4">
     <g id="line2d_20">
      <path d="M 389.984319 240.24351 
L 389.984319 3.00024 
" clip-path="url(#pebaf1d581b)" style="fill: none; stroke: #b0b0b0; stroke-opacity: 0.18; stroke-width: 0.8; stroke-linecap: square"/>
     </g>
     <g id="line2d_21">
      <g>
       <use xlink:href="#med93c653e5" x="389.984319" y="240.24351" style="stroke: #000000; stroke-width: 0.8"/>
      </g>
     </g>
     <g id="text_16">
      <!-- −10 -->
      <g transform="translate(379.431975 254.841947) scale(0.1 -0.1)">
       <use xlink:href="#DejaVuSans-2212"/>
       <use xlink:href="#DejaVuSans-31" transform="translate(83.789062 0)"/>
       <use xlink:href="#DejaVuSans-30" transform="translate(147.412109 0)"/>
      </g>
     </g>
    </g>
    <g id="xtick_5">
     <g id="line2d_22">
      <path d="M 499.354974 240.24351 
L 499.354974 3.00024 
" clip-path="url(#pebaf1d581b)" style="fill: none; stroke: #b0b0b0; stroke-opacity: 0.18; stroke-width: 0.8; stroke-linecap: square"/>
     </g>
     <g id="line2d_23">
      <g>
       <use xlink:href="#med93c653e5" x="499.354974" y="240.24351" style="stroke: #000000; stroke-width: 0.8"/>
      </g>
     </g>
     <g id="text_17">
      <!-- 0 -->
      <g transform="translate(496.173724 254.841947) scale(0.1 -0.1)">
       <use xlink:href="#DejaVuSans-30"/>
      </g>
     </g>
    </g>
    <g id="xtick_6">
     <g id="line2d_24">
      <path d="M 608.725629 240.24351 
L 608.725629 3.00024 
" clip-path="url(#pebaf1d581b)" style="fill: none; stroke: #b0b0b0; stroke-opacity: 0.18; stroke-width: 0.8; stroke-linecap: square"/>
     </g>
     <g id="line2d_25">
      <g>
       <use xlink:href="#med93c653e5" x="608.725629" y="240.24351" style="stroke: #000000; stroke-width: 0.8"/>
      </g>
     </g>
     <g id="text_18">
      <!-- 10 -->
      <g transform="translate(602.363129 254.841947) scale(0.1 -0.1)">
       <use xlink:href="#DejaVuSans-31"/>
       <use xlink:href="#DejaVuSans-30" transform="translate(63.623047 0)"/>
      </g>
     </g>
    </g>
    <g id="text_19">
     <!-- One-at-a-time multiplier change (%) -->
     <g transform="translate(408.694817 268.520072) scale(0.1 -0.1)">
      <use xlink:href="#DejaVuSans-4f"/>
      <use xlink:href="#DejaVuSans-6e" transform="translate(78.710938 0)"/>
      <use xlink:href="#DejaVuSans-65" transform="translate(142.089844 0)"/>
      <use xlink:href="#DejaVuSans-2d" transform="translate(203.613281 0)"/>
      <use xlink:href="#DejaVuSans-61" transform="translate(239.697266 0)"/>
      <use xlink:href="#DejaVuSans-74" transform="translate(300.976562 0)"/>
      <use xlink:href="#DejaVuSans-2d" transform="translate(340.185547 0)"/>
      <use xlink:href="#DejaVuSans-61" transform="translate(376.269531 0)"/>
      <use xlink:href="#DejaVuSans-2d" transform="translate(437.548828 0)"/>
      <use xlink:href="#DejaVuSans-74" transform="translate(473.632812 0)"/>
      <use xlink:href="#DejaVuSans-69" transform="translate(512.841797 0)"/>
      <use xlink:href="#DejaVuSans-6d" transform="translate(540.625 0)"/>
      <use xlink:href="#DejaVuSans-65" transform="translate(638.037109 0)"/>
      <use xlink:href="#DejaVuSans-20" transform="translate(699.560547 0)"/>
      <use xlink:href="#DejaVuSans-6d" transform="translate(731.347656 0)"/>
      <use xlink:href="#DejaVuSans-75" transform="translate(828.759766 0)"/>
      <use xlink:href="#DejaVuSans-6c" transform="translate(892.138672 0)"/>
      <use xlink:href="#DejaVuSans-74" transform="translate(919.921875 0)"/>
      <use xlink:href="#DejaVuSans-69" transform="translate(959.130859 0)"/>
      <use xlink:href="#DejaVuSans-70" transform="translate(986.914062 0)"/>
      <use xlink:href="#DejaVuSans-6c" transform="translate(1050.390625 0)"/>
      <use xlink:href="#DejaVuSans-69" transform="translate(1078.173828 0)"/>
      <use xlink:href="#DejaVuSans-65" transform="translate(1105.957031 0)"/>
      <use xlink:href="#DejaVuSans-72" transform="translate(1167.480469 0)"/>
      <use xlink:href="#DejaVuSans-20" transform="translate(1208.59375 0)"/>
      <use xlink:href="#DejaVuSans-63" transform="translate(1240.380859 0)"/>
      <use xlink:href="#DejaVuSans-68" transform="translate(1295.361328 0)"/>
      <use xlink:href="#DejaVuSans-61" transform="translate(1358.740234 0)"/>
      <use xlink:href="#DejaVuSans-6e" transform="translate(1420.019531 0)"/>
      <use xlink:href="#DejaVuSans-67" transform="translate(1483.398438 0)"/>
      <use xlink:href="#DejaVuSans-65" transform="translate(1546.875 0)"/>
      <use xlink:href="#DejaVuSans-20" transform="translate(1608.398438 0)"/>
      <use xlink:href="#DejaVuSans-28" transform="translate(1640.185547 0)"/>
      <use xlink:href="#DejaVuSans-25" transform="translate(1679.199219 0)"/>
      <use xlink:href="#DejaVuSans-29" transform="translate(1774.21875 0)"/>
     </g>
    </g>
   </g>
   <g id="matplotlib.axis_4">
    <g id="ytick_6">
     <g id="line2d_26">
      <path d="M 368.110187 217.635548 
L 630.59976 217.635548 
" clip-path="url(#pebaf1d581b)" style="fill: none; stroke: #b0b0b0; stroke-opacity: 0.18; stroke-width: 0.8; stroke-linecap: square"/>
     </g>
     <g id="line2d_27">
      <g>
       <use xlink:href="#mc18eb74c9a" x="368.110187" y="217.635548" style="stroke: #000000; stroke-width: 0.8"/>
      </g>
     </g>
     <g id="text_20">
      <!-- −0.04 -->
      <g transform="translate(330.464875 221.434767) scale(0.1 -0.1)">
       <use xlink:href="#DejaVuSans-2212"/>
       <use xlink:href="#DejaVuSans-30" transform="translate(83.789062 0)"/>
       <use xlink:href="#DejaVuSans-2e" transform="translate(147.412109 0)"/>
       <use xlink:href="#DejaVuSans-30" transform="translate(179.199219 0)"/>
       <use xlink:href="#DejaVuSans-34" transform="translate(242.822266 0)"/>
      </g>
     </g>
    </g>
    <g id="ytick_7">
     <g id="line2d_28">
      <path d="M 368.110187 169.628711 
L 630.59976 169.628711 
" clip-path="url(#pebaf1d581b)" style="fill: none; stroke: #b0b0b0; stroke-opacity: 0.18; stroke-width: 0.8; stroke-linecap: square"/>
     </g>
     <g id="line2d_29">
      <g>
       <use xlink:href="#mc18eb74c9a" x="368.110187" y="169.628711" style="stroke: #000000; stroke-width: 0.8"/>
      </g>
     </g>
     <g id="text_21">
      <!-- −0.02 -->
      <g transform="translate(330.464875 173.42793) scale(0.1 -0.1)">
       <use xlink:href="#DejaVuSans-2212"/>
       <use xlink:href="#DejaVuSans-30" transform="translate(83.789062 0)"/>
       <use xlink:href="#DejaVuSans-2e" transform="translate(147.412109 0)"/>
       <use xlink:href="#DejaVuSans-30" transform="translate(179.199219 0)"/>
       <use xlink:href="#DejaVuSans-32" transform="translate(242.822266 0)"/>
      </g>
     </g>
    </g>
    <g id="ytick_8">
     <g id="line2d_30">
      <path d="M 368.110187 121.621875 
L 630.59976 121.621875 
" clip-path="url(#pebaf1d581b)" style="fill: none; stroke: #b0b0b0; stroke-opacity: 0.18; stroke-width: 0.8; stroke-linecap: square"/>
     </g>
     <g id="line2d_31">
      <g>
       <use xlink:href="#mc18eb74c9a" x="368.110187" y="121.621875" style="stroke: #000000; stroke-width: 0.8"/>
      </g>
     </g>
     <g id="text_22">
      <!-- 0.00 -->
      <g transform="translate(338.844562 125.421094) scale(0.1 -0.1)">
       <use xlink:href="#DejaVuSans-30"/>
       <use xlink:href="#DejaVuSans-2e" transform="translate(63.623047 0)"/>
       <use xlink:href="#DejaVuSans-30" transform="translate(95.410156 0)"/>
       <use xlink:href="#DejaVuSans-30" transform="translate(159.033203 0)"/>
      </g>
     </g>
    </g>
    <g id="ytick_9">
     <g id="line2d_32">
      <path d="M 368.110187 73.615039 
L 630.59976 73.615039 
" clip-path="url(#pebaf1d581b)" style="fill: none; stroke: #b0b0b0; stroke-opacity: 0.18; stroke-width: 0.8; stroke-linecap: square"/>
     </g>
     <g id="line2d_33">
      <g>
       <use xlink:href="#mc18eb74c9a" x="368.110187" y="73.615039" style="stroke: #000000; stroke-width: 0.8"/>
      </g>
     </g>
     <g id="text_23">
      <!-- 0.02 -->
      <g transform="translate(338.844562 77.414257) scale(0.1 -0.1)">
       <use xlink:href="#DejaVuSans-30"/>
       <use xlink:href="#DejaVuSans-2e" transform="translate(63.623047 0)"/>
       <use xlink:href="#DejaVuSans-30" transform="translate(95.410156 0)"/>
       <use xlink:href="#DejaVuSans-32" transform="translate(159.033203 0)"/>
      </g>
     </g>
    </g>
    <g id="ytick_10">
     <g id="line2d_34">
      <path d="M 368.110187 25.608202 
L 630.59976 25.608202 
" clip-path="url(#pebaf1d581b)" style="fill: none; stroke: #b0b0b0; stroke-opacity: 0.18; stroke-width: 0.8; stroke-linecap: square"/>
     </g>
     <g id="line2d_35">
      <g>
       <use xlink:href="#mc18eb74c9a" x="368.110187" y="25.608202" style="stroke: #000000; stroke-width: 0.8"/>
      </g>
     </g>
     <g id="text_24">
      <!-- 0.04 -->
      <g transform="translate(338.844562 29.407421) scale(0.1 -0.1)">
       <use xlink:href="#DejaVuSans-30"/>
       <use xlink:href="#DejaVuSans-2e" transform="translate(63.623047 0)"/>
       <use xlink:href="#DejaVuSans-30" transform="translate(95.410156 0)"/>
       <use xlink:href="#DejaVuSans-34" transform="translate(159.033203 0)"/>
      </g>
     </g>
    </g>
    <g id="text_25">
     <!-- Peak liquid-temperature change (K) -->
     <g transform="translate(324.385187 210.754687) rotate(-90) scale(0.1 -0.1)">
      <defs>
       <path id="DejaVuSans-6b" d="M 581 4863 
L 1159 4863 
L 1159 1991 
L 2875 3500 
L 3609 3500 
L 1753 1863 
L 3688 0 
L 2938 0 
L 1159 1709 
L 1159 0 
L 581 0 
L 581 4863 
z
" transform="scale(0.015625)"/>
       <path id="DejaVuSans-4b" d="M 628 4666 
L 1259 4666 
L 1259 2694 
L 3353 4666 
L 4166 4666 
L 1850 2491 
L 4331 0 
L 3500 0 
L 1259 2247 
L 1259 0 
L 628 0 
L 628 4666 
z
" transform="scale(0.015625)"/>
      </defs>
      <use xlink:href="#DejaVuSans-50"/>
      <use xlink:href="#DejaVuSans-65" transform="translate(56.677734 0)"/>
      <use xlink:href="#DejaVuSans-61" transform="translate(118.201172 0)"/>
      <use xlink:href="#DejaVuSans-6b" transform="translate(179.480469 0)"/>
      <use xlink:href="#DejaVuSans-20" transform="translate(237.390625 0)"/>
      <use xlink:href="#DejaVuSans-6c" transform="translate(269.177734 0)"/>
      <use xlink:href="#DejaVuSans-69" transform="translate(296.960938 0)"/>
      <use xlink:href="#DejaVuSans-71" transform="translate(324.744141 0)"/>
      <use xlink:href="#DejaVuSans-75" transform="translate(388.220703 0)"/>
      <use xlink:href="#DejaVuSans-69" transform="translate(451.599609 0)"/>
      <use xlink:href="#DejaVuSans-64" transform="translate(479.382812 0)"/>
      <use xlink:href="#DejaVuSans-2d" transform="translate(542.859375 0)"/>
      <use xlink:href="#DejaVuSans-74" transform="translate(578.943359 0)"/>
      <use xlink:href="#DejaVuSans-65" transform="translate(618.152344 0)"/>
      <use xlink:href="#DejaVuSans-6d" transform="translate(679.675781 0)"/>
      <use xlink:href="#DejaVuSans-70" transform="translate(777.087891 0)"/>
      <use xlink:href="#DejaVuSans-65" transform="translate(840.564453 0)"/>
      <use xlink:href="#DejaVuSans-72" transform="translate(902.087891 0)"/>
      <use xlink:href="#DejaVuSans-61" transform="translate(943.201172 0)"/>
      <use xlink:href="#DejaVuSans-74" transform="translate(1004.480469 0)"/>
      <use xlink:href="#DejaVuSans-75" transform="translate(1043.689453 0)"/>
      <use xlink:href="#DejaVuSans-72" transform="translate(1107.068359 0)"/>
      <use xlink:href="#DejaVuSans-65" transform="translate(1145.931641 0)"/>
      <use xlink:href="#DejaVuSans-20" transform="translate(1207.455078 0)"/>
      <use xlink:href="#DejaVuSans-63" transform="translate(1239.242188 0)"/>
      <use xlink:href="#DejaVuSans-68" transform="translate(1294.222656 0)"/>
      <use xlink:href="#DejaVuSans-61" transform="translate(1357.601562 0)"/>
      <use xlink:href="#DejaVuSans-6e" transform="translate(1418.880859 0)"/>
      <use xlink:href="#DejaVuSans-67" transform="translate(1482.259766 0)"/>
      <use xlink:href="#DejaVuSans-65" transform="translate(1545.736328 0)"/>
      <use xlink:href="#DejaVuSans-20" transform="translate(1607.259766 0)"/>
      <use xlink:href="#DejaVuSans-28" transform="translate(1639.046875 0)"/>
      <use xlink:href="#DejaVuSans-4b" transform="translate(1678.060547 0)"/>
      <use xlink:href="#DejaVuSans-29" transform="translate(1743.636719 0)"/>
     </g>
    </g>
   </g>
   <g id="line2d_36">
    <path d="M 368.110187 121.621875 
L 630.59976 121.621875 
" clip-path="url(#pebaf1d581b)" style="fill: none; stroke: #666666; stroke-width: 0.7; stroke-linecap: square"/>
   </g>
   <g id="line2d_37">
    <g clip-path="url(#pebaf1d581b)">
     <use xlink:href="#m0a5dc1df90" x="499.354974" y="121.621875" style="stroke: #000000"/>
    </g>
   </g>
   <g id="patch_11">
    <path d="M 368.110187 240.24351 
L 368.110187 3.00024 
" style="fill: none; stroke: #000000; stroke-width: 0.8; stroke-linejoin: miter; stroke-linecap: square"/>
   </g>
   <g id="patch_12">
    <path d="M 630.59976 240.24351 
L 630.59976 3.00024 
" style="fill: none; stroke: #000000; stroke-width: 0.8; stroke-linejoin: miter; stroke-linecap: square"/>
   </g>
   <g id="patch_13">
    <path d="M 368.110187 240.24351 
L 630.59976 240.24351 
" style="fill: none; stroke: #000000; stroke-width: 0.8; stroke-linejoin: miter; stroke-linecap: square"/>
   </g>
   <g id="patch_14">
    <path d="M 368.110187 3.00024 
L 630.59976 3.00024 
" style="fill: none; stroke: #000000; stroke-width: 0.8; stroke-linejoin: miter; stroke-linecap: square"/>
   </g>
  </g>
 </g>
 <defs>
  <clipPath id="p8117dbc594">
   <rect x="47.961178" y="3.00024" width="262.489572" height="237.24327"/>
  </clipPath>
  <clipPath id="pebaf1d581b">
   <rect x="368.110187" y="3.00024" width="262.489573" height="237.24327"/>
  </clipPath>
 </defs>
</svg>
